<svg xmlns="http://www.w3.org/2000/svg" width="32" height="32" viewBox="0 0 24 24" fill="none" stroke="#4CAF50" stroke-width="2" stroke-linecap="round" stroke-linejoin="round"><path d="M12 17a5 5 0 0 0 5-5c0-2.76-2.5-5-5-5s-5 2.24-5 5a5 5 0 0 0 5 5Z"></path><path d="M12 8v2"></path><path d="M12 12h2"></path><path d="M9 13a16.3 16.3 0 0 1 2.5-1.5c1-.5 1.5-1 1.5-2.5a2 2 0 0 0-4 0"></path><path d="M9.1 17H7a5 5 0 0 1-5-5c0-2.1 1.3-5 5-5h0a4.9 4.9 0 0 1 2.9.9"></path><path d="M14.9 17H17a5 5 0 0 0 5-5c0-2.1-1.3-5-5-5h0a4.9 4.9 0 0 0-2.9.9"></path></svg>